{
  "accessors": [
    {
      "bufferView": 2,
      "componentType": 5126,
      "count": 204,
      "max": [
        60.58137512207031,
        30.459758758544922,
        9.425542831420898
      ],
      "min": [
        -65.0982894897461,
        -25.028188705444336,
        -12.021413803100586
      ],
      "type": "VEC3"
    },
    {
      "bufferView": 2,
      "byteOffset": 2448,
      "componentType": 5126,
      "count": 204,
      "max": [
        0.9631056785583496,
        0.9947706460952759,
        0.9998235702514648
      ],
      "min": [
        -0.9976499080657959,
        -0.9982359409332275,
        -0.9964509010314941
      ],
      "type": "VEC3"
    },
    {
      "bufferView": 1,
      "componentType": 5126,
      "count": 204,
      "max": [
        0.9950238466262817,
        0.8285707831382751
      ],
      "min": [
        0.02058693766593933,
        0.21306845545768738
      ],
      "type": "VEC2"
    },
    {
      "bufferView": 0,
      "componentType": 5125,
      "count": 1212,
      "type": "SCALAR"
    },
    {
      "bufferView": 2,
      "byteOffset": 4896,
      "componentType": 5126,
      "count": 314,
      "max": [
        58.909332275390625,
        22.056848526000977,
        19.215078353881836
      ],
      "min": [
        -67.99411010742188,
        -33.58405303955078,
        -17.670639038085938
      ],
      "type": "VEC3"
    },
    {
      "bufferView": 2,
      "byteOffset": 8664,
      "componentType": 5126,
      "count": 314,
      "max": [
        0.9712944626808167,
        0.9931324124336243,
        0.9972974061965942
      ],
      "min": [
        -0.9680936932563782,
        -0.9953184723854065,
        -0.9978103041648865
      ],
      "type": "VEC3"
    },
    {
      "bufferView": 1,
      "byteOffset": 1632,
      "componentType": 5126,
      "count": 314,
      "max": [
        0.9987355470657349,
        0.8968747854232788
      ],
      "min": [
        0.007658183574676514,
        0.11313161253929138
      ],
      "type": "VEC2"
    },
    {
      "bufferView": 0,
      "byteOffset": 4848,
      "componentType": 5125,
      "count": 1872,
      "type": "SCALAR"
    },
    {
      "bufferView": 2,
      "byteOffset": 12432,
      "componentType": 5126,
      "count": 462,
      "max": [
        57.620208740234375,
        36.85580062866211,
        17.088666915893555
      ],
      "min": [
        -63.22938919067383,
        -19.652095794677734,
        -12.452733993530273
      ],
      "type": "VEC3"
    },
    {
      "bufferView": 2,
      "byteOffset": 17976,
      "componentType": 5126,
      "count": 462,
      "max": [
        0.997444212436676,
        0.9973658919334412,
        0.998056173324585
      ],
      "min": [
        -0.9990581274032593,
        -0.9906447529792786,
        -0.9998021721839905
      ],
      "type": "VEC3"
    },
    {
      "bufferView": 1,
      "byteOffset": 4144,
      "componentType": 5126,
      "count": 462,
      "max": [
        1.000396966934204,
        0.9782644510269165
      ],
      "min": [
        0.06652113795280457,
        0.19246622920036316
      ],
      "type": "VEC2"
    },
    {
      "bufferView": 0,
      "byteOffset": 12336,
      "componentType": 5125,
      "count": 2760,
      "type": "SCALAR"
    },
    {
      "bufferView": 2,
      "byteOffset": 23520,
      "componentType": 5126,
      "count": 195,
      "max": [
        37.671363830566406,
        13.384883880615234,
        11.617629051208496
      ],
      "min": [
        -39.14250564575195,
        -19.419132232666016,
        -8.282896041870117
      ],
      "type": "VEC3"
    },
    {
      "bufferView": 2,
      "byteOffset": 25860,
      "componentType": 5126,
      "count": 195,
      "max": [
        0.9257603883743286,
        0.9985262155532837,
        0.9775177836418152
      ],
      "min": [
        -0.941132664680481,
        -0.9932698011398315,
        -0.9993656873703003
      ],
      "type": "VEC3"
    },
    {
      "bufferView": 1,
      "byteOffset": 7840,
      "componentType": 5126,
      "count": 195,
      "max": [
        0.8210784196853638,
        0.8879807591438293
      ],
      "min": [
        0.2235962152481079,
        0.325967937707901
      ],
      "type": "VEC2"
    },
    {
      "bufferView": 0,
      "byteOffset": 23376,
      "componentType": 5125,
      "count": 1158,
      "type": "SCALAR"
    },
    {
      "bufferView": 2,
      "byteOffset": 28200,
      "componentType": 5126,
      "count": 195,
      "max": [
        37.671363830566406,
        13.384883880615234,
        11.617629051208496
      ],
      "min": [
        -39.14250564575195,
        -19.419132232666016,
        -8.282896041870117
      ],
      "type": "VEC3"
    },
    {
      "bufferView": 2,
      "byteOffset": 30540,
      "componentType": 5126,
      "count": 195,
      "max": [
        0.9257603883743286,
        0.9985262155532837,
        0.9775177836418152
      ],
      "min": [
        -0.941132664680481,
        -0.9932698011398315,
        -0.9993656873703003
      ],
      "type": "VEC3"
    },
    {
      "bufferView": 1,
      "byteOffset": 9400,
      "componentType": 5126,
      "count": 195,
      "max": [
        0.8194217085838318,
        0.9337688684463501
      ],
      "min": [
        0.22466713190078735,
        0.2640395760536194
      ],
      "type": "VEC2"
    },
    {
      "bufferView": 0,
      "byteOffset": 28008,
      "componentType": 5125,
      "count": 1158,
      "type": "SCALAR"
    },
    {
      "bufferView": 2,
      "byteOffset": 32880,
      "componentType": 5126,
      "count": 314,
      "max": [
        58.909332275390625,
        22.056848526000977,
        19.215078353881836
      ],
      "min": [
        -67.99411010742188,
        -33.58405303955078,
        -17.670639038085938
      ],
      "type": "VEC3"
    },
    {
      "bufferView": 2,
      "byteOffset": 36648,
      "componentType": 5126,
      "count": 314,
      "max": [
        0.9712944626808167,
        0.9931324124336243,
        0.9972974061965942
      ],
      "min": [
        -0.9680936932563782,
        -0.9953184723854065,
        -0.9978103041648865
      ],
      "type": "VEC3"
    },
    {
      "bufferView": 1,
      "byteOffset": 10960,
      "componentType": 5126,
      "count": 314,
      "max": [
        0.9989083409309387,
        0.8947963118553162
      ],
      "min": [
        0.008132785558700562,
        0.13013476133346558
      ],
      "type": "VEC2"
    },
    {
      "bufferView": 0,
      "byteOffset": 32640,
      "componentType": 5125,
      "count": 1872,
      "type": "SCALAR"
    },
    {
      "bufferView": 3,
      "componentType": 5126,
      "count": 81,
      "max": [
        2.6666667461395264
      ],
      "min": [
        0.0
      ],
      "type": "SCALAR"
    },
    {
      "bufferView": 4,
      "componentType": 5126,
      "count": 81,
      "max": [
        34.1977424621582,
        -10.466407775878906,
        236.7519073486328
      ],
      "min": [
        26.30476188659668,
        -11.321205139160156,
        236.7519073486328
      ],
      "type": "VEC3"
    },
    {
      "bufferView": 3,
      "byteOffset": 324,
      "componentType": 5126,
      "count": 81,
      "max": [
        2.6666667461395264
      ],
      "min": [
        0.0
      ],
      "type": "SCALAR"
    },
    {
      "bufferView": 4,
      "byteOffset": 972,
      "componentType": 5126,
      "count": 81,
      "max": [
        -49.269744873046875,
        -46.34547424316406,
        233.67872619628906
      ],
      "min": [
        -51.61499786376953,
        -48.925498962402344,
        233.67872619628906
      ],
      "type": "VEC3"
    },
    {
      "bufferView": 3,
      "byteOffset": 648,
      "componentType": 5126,
      "count": 81,
      "max": [
        2.6666667461395264
      ],
      "min": [
        0.0
      ],
      "type": "SCALAR"
    },
    {
      "bufferView": 4,
      "byteOffset": 1944,
      "componentType": 5126,
      "count": 81,
      "max": [
        -36.38346862792969,
        32.5623779296875,
        233.39382934570313
      ],
      "min": [
        -39.61112976074219,
        31.121063232421875,
        233.39382934570313
      ],
      "type": "VEC3"
    },
    {
      "bufferView": 3,
      "byteOffset": 972,
      "componentType": 5126,
      "count": 81,
      "max": [
        2.6666667461395264
      ],
      "min": [
        0.0
      ],
      "type": "SCALAR"
    },
    {
      "bufferView": 4,
      "byteOffset": 2916,
      "componentType": 5126,
      "count": 81,
      "max": [
        83.45442199707031,
        -31.367698669433594,
        223.4718780517578
      ],
      "min": [
        78.5394058227539,
        -32.55992126464844,
        223.4718780517578
      ],
      "type": "VEC3"
    },
    {
      "bufferView": 3,
      "byteOffset": 1296,
      "componentType": 5126,
      "count": 81,
      "max": [
        2.6666667461395264
      ],
      "min": [
        0.0
      ],
      "type": "SCALAR"
    },
    {
      "bufferView": 4,
      "byteOffset": 3888,
      "componentType": 5126,
      "count": 81,
      "max": [
        -66.69601440429688,
        87.62022399902344,
        217.6799774169922
      ],
      "min": [
        -71.61103820800781,
        86.4280014038086,
        217.6799774169922
      ],
      "type": "VEC3"
    },
    {
      "bufferView": 3,
      "byteOffset": 1620,
      "componentType": 5126,
      "count": 81,
      "max": [
        2.6666667461395264
      ],
      "min": [
        0.0
      ],
      "type": "SCALAR"
    },
    {
      "bufferView": 4,
      "byteOffset": 4860,
      "componentType": 5126,
      "count": 81,
      "max": [
        45.838016510009766,
        76.8984375,
        238.1253662109375
      ],
      "min": [
        43.49277114868164,
        74.31841278076172,
        238.1253662109375
      ],
      "type": "VEC3"
    }
  ],
  "animations": [
    {
      "channels": [
        {
          "sampler": 0,
          "target": {
            "node": 5,
            "path": "translation"
          }
        },
        {
          "sampler": 1,
          "target": {
            "node": 7,
            "path": "translation"
          }
        },
        {
          "sampler": 2,
          "target": {
            "node": 9,
            "path": "translation"
          }
        },
        {
          "sampler": 3,
          "target": {
            "node": 11,
            "path": "translation"
          }
        },
        {
          "sampler": 4,
          "target": {
            "node": 13,
            "path": "translation"
          }
        },
        {
          "sampler": 5,
          "target": {
            "node": 15,
            "path": "translation"
          }
        }
      ],
      "name": "Take 001",
      "samplers": [
        {
          "input": 24,
          "interpolation": "LINEAR",
          "output": 25
        },
        {
          "input": 26,
          "interpolation": "LINEAR",
          "output": 27
        },
        {
          "input": 28,
          "interpolation": "LINEAR",
          "output": 29
        },
        {
          "input": 30,
          "interpolation": "LINEAR",
          "output": 31
        },
        {
          "input": 32,
          "interpolation": "LINEAR",
          "output": 33
        },
        {
          "input": 34,
          "interpolation": "LINEAR",
          "output": 35
        }
      ]
    }
  ],
  "asset": {
    "extras": {
      "author": "Paxar095 (https://sketchfab.com/paxar095)",
      "license": "CC-BY-4.0 (http://creativecommons.org/licenses/by/4.0/)",
      "source": "https://sketchfab.com/3d-models/rain-3-6021e79c421344af9667469aa472389b",
      "title": "Rain 3"
    },
    "generator": "Sketchfab-12.67.0",
    "version": "2.0"
  },
  "bufferViews": [
    {
      "buffer": 0,
      "byteLength": 40128,
      "name": "floatBufferViews",
      "target": 34963
    },
    {
      "buffer": 0,
      "byteLength": 13472,
      "byteOffset": 40128,
      "byteStride": 8,
      "name": "floatBufferViews",
      "target": 34962
    },
    {
      "buffer": 0,
      "byteLength": 40416,
      "byteOffset": 53600,
      "byteStride": 12,
      "name": "floatBufferViews",
      "target": 34962
    },
    {
      "buffer": 0,
      "byteLength": 1944,
      "byteOffset": 94016,
      "name": "floatBufferViews"
    },
    {
      "buffer": 0,
      "byteLength": 5832,
      "byteOffset": 95960,
      "byteStride": 12,
      "name": "floatBufferViews"
    }
  ],
  "buffers": [
    {
      "byteLength": 101792,
      "uri": "scene.bin"
    }
  ],
  "images": [
    {
      "uri": "textures/Material_0_baseColor.png"
    },
    {
      "uri": "textures/Material_0_emissive.png"
    }
  ],
  "materials": [
    {
      "doubleSided": true,
      "emissiveFactor": [
        1.0,
        1.0,
        1.0
      ],
      "emissiveTexture": {
        "index": 1
      },
      "name": "Material_0",
      "pbrMetallicRoughness": {
        "baseColorTexture": {
          "index": 0
        },
        "metallicFactor": 0.0,
        "roughnessFactor": 0.6
      }
    }
  ],
  "meshes": [
    {
      "name": "cloud_101_Material #0_0",
      "primitives": [
        {
          "attributes": {
            "NORMAL": 1,
            "POSITION": 0,
            "TEXCOORD_0": 2
          },
          "indices": 3,
          "material": 0,
          "mode": 4
        }
      ]
    },
    {
      "name": "cloud_102_Material #0_0",
      "primitives": [
        {
          "attributes": {
            "NORMAL": 5,
            "POSITION": 4,
            "TEXCOORD_0": 6
          },
          "indices": 7,
          "material": 0,
          "mode": 4
        }
      ]
    },
    {
      "name": "cloud_104_Material #0_0",
      "primitives": [
        {
          "attributes": {
            "NORMAL": 9,
            "POSITION": 8,
            "TEXCOORD_0": 10
          },
          "indices": 11,
          "material": 0,
          "mode": 4
        }
      ]
    },
    {
      "name": "cloud_103_Material #0_0",
      "primitives": [
        {
          "attributes": {
            "NORMAL": 13,
            "POSITION": 12,
            "TEXCOORD_0": 14
          },
          "indices": 15,
          "material": 0,
          "mode": 4
        }
      ]
    },
    {
      "name": "cloud_105_Material #0_0",
      "primitives": [
        {
          "attributes": {
            "NORMAL": 17,
            "POSITION": 16,
            "TEXCOORD_0": 18
          },
          "indices": 19,
          "material": 0,
          "mode": 4
        }
      ]
    },
    {
      "name": "cloud_106_Material #0_0",
      "primitives": [
        {
          "attributes": {
            "NORMAL": 21,
            "POSITION": 20,
            "TEXCOORD_0": 22
          },
          "indices": 23,
          "material": 0,
          "mode": 4
        }
      ]
    }
  ],
  "nodes": [
    {
      "children": [
        1
      ],
      "matrix": [
        1.0,
        0.0,
        0.0,
        0.0,
        0.0,
        2.220446049250313e-16,
        -1.0,
        0.0,
        0.0,
        1.0,
        2.220446049250313e-16,
        0.0,
        0.0,
        0.0,
        0.0,
        1.0
      ],
      "name": "Sketchfab_model"
    },
    {
      "children": [
        2
      ],
      "matrix": [
        1.0,
        0.0,
        0.0,
        0.0,
        0.0,
        0.0,
        1.0,
        0.0,
        0.0,
        -1.0,
        0.0,
        0.0,
        0.0,
        0.0,
        0.0,
        1.0
      ],
      "name": "a7f6f84b188143daa3c5cfeaf0cd1fe3.fbx"
    },
    {
      "children": [
        3
      ],
      "name": "Object_2"
    },
    {
      "children": [
        4
      ],
      "name": "RootNode"
    },
    {
      "children": [
        5,
        7,
        9,
        11,
        13,
        15
      ],
      "name": "rain",
      "rotation": [
        -0.7071068286895752,
        -0.0,
        0.0,
        0.7071068286895752
      ],
      "scale": [
        2.5399999618530273,
        2.5399999618530273,
        2.5399999618530273
      ]
    },
    {
      "children": [
        6
      ],
      "name": "cloud_101",
      "rotation": [
        4.371138828673793e-08,
        -4.371138828673793e-08,
        1.0,
        1.971917900438192e-15
      ],
      "translation": [
        34.1977424621582,
        -11.321205139160156,
        236.7519073486328
      ]
    },
    {
      "mesh": 0,
      "name": "cloud_101_Material #0_0"
    },
    {
      "children": [
        8
      ],
      "name": "cloud_102",
      "rotation": [
        0.2995615303516388,
        -0.08312191814184189,
        0.026208287104964256,
        0.9500877857208252
      ],
      "translation": [
        -49.269744873046875,
        -46.34547424316406,
        233.67872619628906
      ]
    },
    {
      "mesh": 1,
      "name": "cloud_102_Material #0_0"
    },
    {
      "children": [
        10
      ],
      "name": "cloud_104",
      "rotation": [
        -8.742277657347586e-08,
        -0.0,
        0.0,
        1.0
      ],
      "translation": [
        -39.61112976074219,
        31.121063232421875,
        233.39382934570313
      ]
    },
    {
      "mesh": 2,
      "name": "cloud_104_Material #0_0"
    },
    {
      "children": [
        12
      ],
      "name": "cloud_103",
      "rotation": [
        -4.371139183945161e-08,
        4.371138473402425e-08,
        4.371139183945161e-08,
        1.0
      ],
      "translation": [
        83.45442199707031,
        -32.55992126464844,
        223.4718780517578
      ]
    },
    {
      "mesh": 3,
      "name": "cloud_103_Material #0_0"
    },
    {
      "children": [
        14
      ],
      "name": "cloud_105",
      "rotation": [
        -3.973534035139892e-08,
        -4.735476366590774e-08,
        0.9961946606636047,
        -0.08715604990720749
      ],
      "translation": [
        -66.69601440429688,
        86.4280014038086,
        217.6799774169922
      ]
    },
    {
      "mesh": 4,
      "name": "cloud_105_Material #0_0"
    },
    {
      "children": [
        16
      ],
      "name": "cloud_106",
      "rotation": [
        0.3029021620750427,
        -0.06997605413198471,
        0.06762577593326569,
        0.9480403065681458
      ],
      "translation": [
        45.838016510009766,
        76.8984375,
        238.1253662109375
      ]
    },
    {
      "mesh": 5,
      "name": "cloud_106_Material #0_0"
    }
  ],
  "samplers": [
    {
      "magFilter": 9729,
      "minFilter": 9987,
      "wrapS": 10497,
      "wrapT": 10497
    }
  ],
  "scene": 0,
  "scenes": [
    {
      "name": "Sketchfab_Scene",
      "nodes": [
        0
      ]
    }
  ],
  "textures": [
    {
      "sampler": 0,
      "source": 0
    },
    {
      "sampler": 0,
      "source": 1
    }
  ]
}
